<svg width="57" height="57" viewBox="0 0 57 57" fill="none" xmlns="http://www.w3.org/2000/svg">
<rect width="57" height="57" fill="#1E1E1E"/>
<g id="home">
<rect width="1920" height="2110" transform="translate(-1754 -1986)" fill="white"/>
<g id="button_top">
<g id="Group 9" filter="url(#filter0_d_0_1)">
<g id="Group 7.1">
<g id="Group 4">
<rect id="Rectangle 3.1" x="4" y="4" width="49" height="49" rx="8" fill="white"/>
</g>
</g>
<g id="Group 19">
<path id="Vector" d="M36.0889 27.0852L28.5184 20.072C28.5149 20.072 28.5122 20.0692 28.5122 20.0659L28.4939 20.0475C28.4877 20.0414 28.4755 20.0353 28.4694 20.0292C28.4634 20.0215 28.4546 20.0171 28.4449 20.0169C28.4387 20.0108 28.4265 20.0047 28.4204 19.9985C28.4142 19.9924 28.402 19.9924 28.3959 19.9863C28.3897 19.9802 28.3775 19.9802 28.3652 19.974C28.3591 19.9679 28.3469 19.9679 28.3407 19.9618C28.3285 19.9557 28.3224 19.9557 28.3101 19.9495C28.304 19.9495 28.2917 19.9434 28.2856 19.9434C28.2734 19.9434 28.2672 19.9373 28.255 19.9373C28.2489 19.9373 28.2366 19.9312 28.2305 19.9312C28.2182 19.9312 28.206 19.925 28.1937 19.925L28.0345 19.925C28.0222 19.925 28.01 19.9312 27.9977 19.9312C27.9916 19.9312 27.9794 19.9373 27.9732 19.9373C27.961 19.9373 27.9549 19.9434 27.9426 19.9434C27.9365 19.9434 27.9242 19.9495 27.9181 19.9495C27.9059 19.9557 27.8997 19.9557 27.8875 19.9618C27.8814 19.9679 27.8691 19.9679 27.863 19.974C27.8507 19.9802 27.8446 19.9802 27.8324 19.9863C27.8262 19.9924 27.814 19.9924 27.8079 19.9985C27.8017 20.0047 27.7895 20.0108 27.7834 20.0169C27.7772 20.023 27.7711 20.023 27.7589 20.0292C27.7527 20.0353 27.7405 20.0414 27.7344 20.0475L27.716 20.0659C27.7125 20.0659 27.7099 20.0688 27.7099 20.072L20.1394 27.0852C19.8821 27.3051 19.8521 27.6917 20.072 27.9488C20.2917 28.2058 20.6784 28.2361 20.9356 28.0162L27.5016 21.8667L27.5016 35.7337C27.5016 36.0721 27.7757 36.3462 28.1141 36.3462C28.4525 36.3462 28.7266 36.0721 28.7266 35.7337L28.7266 21.8667L35.2926 28.0162C35.5499 28.2361 35.9365 28.2058 36.1562 27.9488C36.3762 27.6917 36.3461 27.3051 36.0889 27.0852Z" fill="black"/>
</g>
</g>
</g>
</g>
<defs>
<filter id="filter0_d_0_1" x="0" y="0" width="57" height="57" filterUnits="userSpaceOnUse" color-interpolation-filters="sRGB">
<feFlood flood-opacity="0" result="BackgroundImageFix"/>
<feColorMatrix in="SourceAlpha" type="matrix" values="0 0 0 0 0 0 0 0 0 0 0 0 0 0 0 0 0 0 127 0" result="hardAlpha"/>
<feOffset/>
<feGaussianBlur stdDeviation="2"/>
<feColorMatrix type="matrix" values="0 0 0 0 0 0 0 0 0 0 0 0 0 0 0 0 0 0 0.25 0"/>
<feBlend mode="normal" in2="BackgroundImageFix" result="effect1_dropShadow_0_1"/>
<feBlend mode="normal" in="SourceGraphic" in2="effect1_dropShadow_0_1" result="shape"/>
</filter>
</defs>
</svg>
