<svg width="26" height="23" viewBox="0 0 26 23" fill="none" xmlns="http://www.w3.org/2000/svg">
<path d="M25.381 10.7776C25.0395 10.7787 24.7629 11.055 24.7619 11.3966V19.209C24.759 20.2333 23.9291 21.0631 22.9048 21.0662H3.09524C2.07091 21.0631 1.241 20.2333 1.2381 19.209V11.3966C1.2381 11.0548 0.961071 10.7776 0.619048 10.7776C0.277024 10.7776 0 11.0548 0 11.3966V19.209C0.00077381 20.9182 1.38609 22.3035 3.09524 22.3043H22.9048C24.6139 22.3035 25.9992 20.9182 26 19.209V11.3966C25.999 11.055 25.7224 10.7787 25.381 10.7776Z" fill="black"/>
<path d="M8.46855 14.3124L12.4057 17.6862C12.4092 17.6862 12.4119 17.6891 12.4119 17.6924L12.4305 17.711C12.4366 17.7171 12.449 17.7233 12.4552 17.7295C12.4612 17.7373 12.4701 17.7417 12.48 17.7419C12.4862 17.7481 12.4986 17.7543 12.5047 17.7605C12.5109 17.7667 12.5233 17.7667 12.5295 17.7729C12.5357 17.779 12.5481 17.779 12.5605 17.7852C12.5666 17.7914 12.579 17.7914 12.5852 17.7976C12.5976 17.8038 12.6038 17.8038 12.6162 17.81C12.6224 17.81 12.6347 17.8162 12.6409 17.8162C12.6533 17.8162 12.6595 17.8224 12.6719 17.8224C12.6781 17.8224 12.6905 17.8286 12.6966 17.8286C12.709 17.8286 12.7214 17.8348 12.7338 17.8348H12.8947C12.9071 17.8348 12.9195 17.8286 12.9319 17.8286C12.9381 17.8286 12.9505 17.8224 12.9566 17.8224C12.969 17.8224 12.9752 17.8162 12.9876 17.8162C12.9938 17.8162 13.0062 17.81 13.0124 17.81C13.0247 17.8038 13.0309 17.8038 13.0433 17.7976C13.0495 17.7914 13.0619 17.7914 13.0681 17.7852C13.0805 17.779 13.0866 17.779 13.099 17.7729C13.1052 17.7667 13.1176 17.7667 13.1238 17.7605C13.13 17.7543 13.1424 17.7481 13.1486 17.7419C13.1547 17.7357 13.1609 17.7357 13.1733 17.7295C13.1795 17.7233 13.1919 17.7171 13.1981 17.711L13.2166 17.6924C13.2201 17.6924 13.2228 17.6895 13.2228 17.6862L17.16 14.3124C17.42 14.0901 17.4504 13.6993 17.2281 13.4395C17.006 13.1797 16.6152 13.1492 16.3552 13.3714L13.4333 15.8724V0.619048C13.4333 0.277024 13.1563 0 12.8143 0C12.4722 0 12.1952 0.277024 12.1952 0.619048V15.8724L9.27332 13.3714C9.01332 13.1492 8.62254 13.1797 8.40046 13.4395C8.17818 13.6993 8.20855 14.0901 8.46855 14.3124Z" fill="black"/>
</svg>
