<svg width="187" height="73" viewBox="0 0 187 73" fill="none" xmlns="http://www.w3.org/2000/svg">
<path d="M65.093 0H6.85498V52.979H65.093V0Z" fill="#FFF200"/>
<path d="M14.9351 33.715L12.8481 39.9501H10.165L16.993 20.1281H20.1241L26.9821 39.9501H24.209L22.062 33.715H14.9351ZM21.524 31.715L19.5561 26.0101C19.1091 24.7161 18.8111 23.5401 18.5121 22.3931H18.4521C18.1541 23.5691 17.826 24.7751 17.438 25.9811L15.47 31.716H21.524V31.715Z" fill="#3E3F41"/>
<path d="M31.4261 20.392C32.7381 20.127 34.6161 19.98 36.4051 19.98C39.1781 19.98 40.9671 20.48 42.2191 21.598C43.2331 22.48 43.799 23.833 43.799 25.363C43.799 27.98 42.1291 29.716 40.0121 30.421V30.509C41.5621 31.038 42.4871 32.45 42.9641 34.509C43.6201 37.274 44.097 39.185 44.514 39.95H41.8311C41.5031 39.391 41.056 37.685 40.489 35.215C39.893 32.48 38.8191 31.45 36.4641 31.362H34.019V39.95H31.425V20.392H31.4261ZM34.0201 29.421H36.674C39.447 29.421 41.2061 27.921 41.2061 25.656C41.2061 23.097 39.3281 21.98 36.5851 21.95C35.3331 21.95 34.4381 22.068 34.0211 22.186V29.421H34.0201Z" fill="#3E3F41"/>
<path d="M53.0441 22.3031H46.9321V20.1271H61.8102V22.3031H55.6682V39.9491H53.0441V22.3031Z" fill="#3E3F41"/>
<path d="M88.6482 39.067C87.4852 39.479 85.1892 40.155 82.4762 40.155C79.4352 40.155 76.9302 39.39 74.9622 37.537C73.2332 35.89 72.1592 33.243 72.1592 30.155C72.1892 24.244 76.3032 19.92 83.0422 19.92C85.3682 19.92 87.1862 20.42 88.0512 20.831L87.4252 22.92C86.3522 22.449 85.0102 22.067 82.9822 22.067C78.0922 22.067 74.9022 25.067 74.9022 30.037C74.9022 35.066 77.9732 38.037 82.6542 38.037C84.3532 38.037 85.5162 37.802 86.1132 37.508V31.597H82.0282V29.538H88.6472V39.067H88.6482Z" fill="white"/>
<path d="M97.3569 33.715L95.2699 39.9501H92.5869L99.4149 20.1281H102.546L109.404 39.9501H106.631L104.484 33.715H97.3569ZM103.946 31.715L101.978 26.0101C101.531 24.7161 101.233 23.5401 100.934 22.3931H100.874C100.576 23.5691 100.248 24.7751 99.8599 25.9811L97.8919 31.716H103.946V31.715Z" fill="white"/>
<path d="M113.848 20.1271H116.442V37.8031H125.029V39.9501H113.848V20.1271Z" fill="white"/>
<path d="M139.82 30.6561H132.008V37.8031H140.714V39.9501H129.414V20.1271H140.267V22.2741H132.008V28.5381H139.82V30.6561Z" fill="white"/>
<path d="M145.577 20.392C146.889 20.127 148.767 19.98 150.556 19.98C153.329 19.98 155.118 20.48 156.37 21.598C157.384 22.48 157.95 23.833 157.95 25.363C157.95 27.98 156.28 29.716 154.163 30.421V30.509C155.713 31.038 156.638 32.45 157.115 34.509C157.771 37.274 158.248 39.185 158.665 39.95H155.982C155.654 39.391 155.207 37.685 154.64 35.215C154.044 32.48 152.97 31.45 150.615 31.362H148.17V39.95H145.576V20.392H145.577ZM148.171 29.421H150.825C153.598 29.421 155.357 27.921 155.357 25.656C155.357 23.097 153.479 21.98 150.735 21.95C149.483 21.95 148.588 22.068 148.171 22.186V29.421Z" fill="white"/>
<path d="M167.255 39.9501V31.5381L160.904 20.1271H163.856L166.689 25.5971C167.464 27.0971 168.061 28.3031 168.687 29.6851H168.747C169.313 28.3911 169.999 27.0971 170.774 25.5971L173.666 20.1271H176.618L169.88 31.5091V39.9501H167.255Z" fill="white"/>
<path d="M67.2899 60.817C67.8709 61.17 68.7219 61.464 69.6159 61.464C70.9429 61.464 71.7189 60.773 71.7189 59.773C71.7189 58.847 71.1829 58.317 69.8259 57.803C68.1849 57.23 67.1709 56.392 67.1709 54.995C67.1709 53.451 68.4679 52.304 70.4209 52.304C71.4499 52.304 72.1959 52.539 72.6429 52.789L72.2849 53.833C71.9559 53.657 71.2849 53.363 70.3759 53.363C69.0039 53.363 68.4819 54.172 68.4819 54.848C68.4819 55.774 69.0929 56.23 70.4799 56.759C72.1799 57.406 73.0449 58.215 73.0449 59.67C73.0449 61.199 71.8969 62.5219 69.5249 62.5219C68.5559 62.5219 67.4969 62.243 66.9609 61.89L67.2899 60.817Z" fill="white"/>
<path d="M77.188 59.2579L76.144 62.3749H74.802L78.217 52.4659H79.783L83.213 62.3749H81.826L80.752 59.2579H77.188ZM80.483 58.2589L79.499 55.4069C79.276 54.7599 79.126 54.1719 78.977 53.5989H78.947C78.798 54.1869 78.634 54.7899 78.44 55.3919L77.456 58.2589H80.483Z" fill="white"/>
<path d="M85.4309 62.3749V52.4659H86.8479L90.0699 57.4789C90.8149 58.6399 91.3959 59.6839 91.8739 60.6989L91.9039 60.6849C91.7849 59.3619 91.7549 58.1559 91.7549 56.6119V52.4659H92.9779V62.3749H91.6659L88.4739 57.3469C87.7729 56.2439 87.1029 55.1119 86.5949 54.0389L86.5509 54.0539C86.6249 55.3029 86.6549 56.4949 86.6549 58.1409V62.3749H85.4309Z" fill="white"/>
<path d="M99.8899 52.4659H105.303V53.5389H101.188V56.8319H104.991V57.8909H101.188V62.3749H99.8909V52.4659H99.8899Z" fill="white"/>
<path d="M107.895 52.598C108.551 52.466 109.49 52.392 110.385 52.392C111.772 52.392 112.667 52.642 113.293 53.2C113.8 53.641 114.083 54.318 114.083 55.082C114.083 56.391 113.248 57.258 112.19 57.611V57.655C112.965 57.92 113.427 58.626 113.666 59.655C113.994 61.037 114.232 61.993 114.442 62.375H113.099C112.935 62.096 112.712 61.243 112.428 60.008C112.13 58.641 111.593 58.126 110.415 58.082H109.192V62.375H107.895V52.598ZM109.192 57.112H110.519C111.906 57.112 112.785 56.362 112.785 55.23C112.785 53.951 111.846 53.392 110.474 53.378C109.848 53.378 109.4 53.437 109.192 53.495V57.112Z" fill="white"/>
<path d="M118.36 59.2579L117.316 62.3749H115.974L119.389 52.4659H120.955L124.385 62.3749H122.998L121.924 59.2579H118.36ZM121.655 58.2589L120.671 55.4069C120.448 54.7599 120.298 54.1719 120.149 53.5989H120.119C119.97 54.1869 119.806 54.7899 119.612 55.3919L118.628 58.2589H121.655Z" fill="white"/>
<path d="M126.602 62.3749V52.4659H128.019L131.241 57.4789C131.986 58.6399 132.567 59.6839 133.045 60.6989L133.075 60.6849C132.956 59.3619 132.926 58.1559 132.926 56.6119V52.4659H134.149V62.3749H132.837L129.645 57.3469C128.944 56.2439 128.274 55.1119 127.766 54.0389L127.722 54.0539C127.796 55.3029 127.826 56.4949 127.826 58.1409V62.3749H126.602Z" fill="white"/>
<path d="M144.18 62.052C143.703 62.287 142.749 62.5219 141.525 62.5219C138.692 62.5219 136.56 60.7579 136.56 57.5079C136.56 54.4059 138.692 52.304 141.809 52.304C143.061 52.304 143.852 52.569 144.195 52.745L143.882 53.789C143.39 53.554 142.688 53.378 141.854 53.378C139.497 53.378 137.932 54.863 137.932 57.465C137.932 59.891 139.349 61.449 141.795 61.449C142.585 61.449 143.39 61.287 143.912 61.037L144.18 62.052Z" fill="white"/>
<path d="M147.845 52.4659V62.3749H146.548V52.4659H147.845Z" fill="white"/>
<path d="M150.676 60.817C151.257 61.17 152.107 61.464 153.002 61.464C154.329 61.464 155.105 60.773 155.105 59.773C155.105 58.847 154.569 58.317 153.212 57.803C151.571 57.23 150.557 56.392 150.557 54.995C150.557 53.451 151.854 52.304 153.807 52.304C154.836 52.304 155.582 52.539 156.029 52.789L155.671 53.833C155.342 53.657 154.671 53.363 153.762 53.363C152.39 53.363 151.868 54.172 151.868 54.848C151.868 55.774 152.479 56.23 153.866 56.759C155.566 57.406 156.431 58.215 156.431 59.67C156.431 61.199 155.283 62.5219 152.911 62.5219C151.942 62.5219 150.883 62.243 150.347 61.89L150.676 60.817Z" fill="white"/>
<path d="M165.973 62.052C165.496 62.287 164.542 62.5219 163.318 62.5219C160.485 62.5219 158.353 60.7579 158.353 57.5079C158.353 54.4059 160.485 52.304 163.601 52.304C164.853 52.304 165.644 52.569 165.987 52.745L165.674 53.789C165.182 53.554 164.48 53.378 163.646 53.378C161.289 53.378 159.724 54.863 159.724 57.465C159.724 59.891 161.141 61.449 163.587 61.449C164.377 61.449 165.182 61.287 165.704 61.037L165.973 62.052Z" fill="white"/>
<path d="M176.617 57.3179C176.617 60.7279 174.514 62.5369 171.95 62.5369C169.295 62.5369 167.432 60.5079 167.432 57.5089C167.432 54.3629 169.415 52.3049 172.099 52.3049C174.843 52.3039 176.617 54.3769 176.617 57.3179ZM168.819 57.4789C168.819 59.5959 169.982 61.4929 172.024 61.4929C174.083 61.4929 175.246 59.6259 175.246 57.3769C175.246 55.4069 174.202 53.3489 172.04 53.3489C169.892 53.3479 168.819 55.3029 168.819 57.4789Z" fill="white"/>
<path d="M81.9659 71.4H71.9639V72.664H81.9659V71.4Z" fill="white"/>
<path d="M178.066 34.084H186.48V5.04004H1V58.224H62.954" stroke="white" stroke-width="0.7702" stroke-miterlimit="10"/>
</svg>
